<svg aria-hidden="true" focusable="false" data-reactid="589">
  <use xlink:href="/images/adaptive/livestyleguide/walgreens.com/v3.0/themes/images/icons/symbol-defs.svg#icon__avatar" data-reactid="590">
    <symbol id="icon__avatar" viewBox="0 0 32 32">
      <path d="M20.341 16.672c-0.011 0-0.011-0.011-0.021-0.011l-3.467-1.408 0.448-0.181c0 0 0.011 0 0.011 0 0.96-0.437 1.621-1.355 1.707-2.389 0.011-0.075 0.011-0.139 0.011-0.213 0-0.043 0-0.416 0-0.469-0.021-0.427-0.117-0.843-0.299-1.237-0.491-1.056-1.493-1.76-2.635-1.835 0 0 0 0-0.011 0 0 0 0 0-0.011 0h-0.171c0 0 0 0-0.011 0 0 0 0 0-0.011 0-1.131 0.075-2.133 0.779-2.635 1.835-0.181 0.384-0.277 0.8-0.299 1.237 0 0.053 0 0.437 0 0.469 0 0.075 0 0.139 0.011 0.213 0.085 1.045 0.736 1.963 1.707 2.389 0 0 0.011 0 0.011 0l0.448 0.181-3.467 1.408c-0.011 0-0.011 0.011-0.021 0.011-0.939 0.459-1.536 1.451-1.536 2.507v1.387c0 0.416 0.181 2.507 3.744 2.507h4.288c3.563 0 3.744-2.091 3.744-2.507v-1.387c0-1.056-0.597-2.048-1.536-2.507zM14.944 14.485c-0.747-0.341-1.259-1.045-1.323-1.856 0-0.053-0.011-0.107-0.011-0.16s0-0.405 0-0.437c0.011-0.341 0.096-0.672 0.235-0.992 0.395-0.843 1.184-1.408 2.080-1.472h0.149c0.896 0.064 1.685 0.619 2.080 1.472 0.149 0.309 0.224 0.64 0.235 0.992 0 0.043 0 0.384 0 0.437s0 0.107-0.011 0.16c-0.064 0.811-0.576 1.515-1.323 1.856l-1.056 0.427-1.056-0.427zM21.237 20.576c0 0.437-0.224 1.867-3.104 1.867h-4.288c-2.88 0-3.104-1.429-3.104-1.867v-1.387c0-0.821 0.459-1.579 1.173-1.931l4.075-1.643 4.075 1.643c0.715 0.363 1.173 1.12 1.173 1.931v1.387z"></path>
    </symbol>
  </use>
</svg>
