<svg version="1.1" id="Layer_1" xmlns="http://www.w3.org/2000/svg" xmlns:xlink="http://www.w3.org/1999/xlink" x="0px" y="0px"
	 width="100%" viewBox="0 0 716 464" enable-background="new 0 0 716 464" xml:space="preserve">
<path fill="#E63214" opacity="1.000000" stroke="none" 
	d="
M653.694946,1.248756 
	C662.354248,1.000000 670.708496,1.000000 679.531372,1.000000 
	C680.514954,1.423423 681.044617,1.776058 681.734741,1.909985 
	C700.933044,5.635381 712.900757,18.074743 715.947327,37.489254 
	C716.100525,38.465729 715.984497,39.485355 716.751709,40.695099 
	C717.000000,63.020893 717.000000,85.041786 717.000000,107.531342 
	C714.971436,111.604576 715.668579,115.657738 715.391296,119.473763 
	C714.517578,131.498688 711.072388,142.934097 707.645935,154.325363 
	C694.944153,196.552582 675.820129,235.813599 652.380798,273.086884 
	C627.766174,312.228973 598.432861,347.481140 564.754700,379.044434 
	C537.418701,404.663788 507.377808,426.699738 473.694855,443.406189 
	C459.210205,450.590454 444.202911,456.549194 428.612518,461.001099 
	C421.380585,463.066254 413.903503,463.252289 406.286560,464.755310 
	C385.312439,465.000000 364.624878,465.000000 343.468658,465.000000 
	C341.688751,463.663055 339.933533,463.977081 338.339539,463.815216 
	C323.591797,462.317535 311.436920,455.238129 300.262451,446.102264 
	C298.080688,444.318573 296.023712,442.362732 293.945587,440.451111 
	C288.465729,435.410400 288.079987,435.186798 281.406708,438.659058 
	C265.742493,446.809601 249.657440,453.883759 232.837708,459.375427 
	C224.233292,462.184753 215.392426,463.146881 206.286072,464.755798 
	C185.312439,465.000000 164.624878,465.000000 143.468658,465.000000 
	C141.714539,463.647278 139.933746,463.933044 138.370392,463.758484 
	C120.630119,461.778168 106.856895,452.285339 95.291878,439.708862 
	C77.484138,420.343689 71.272614,396.458099 70.498100,370.748627 
	C69.308197,331.250244 79.796478,294.298706 94.993973,258.410065 
	C116.471169,207.692001 146.550293,162.241302 180.676727,119.296486 
	C182.616364,116.855614 184.814484,114.582733 186.600235,111.141083 
	C182.232971,111.565697 178.839218,113.303391 175.257111,114.202110 
	C165.213226,116.722000 155.108780,118.256126 144.697983,118.599091 
	C122.910675,119.316818 101.549759,115.997993 80.110649,113.026352 
	C61.409229,110.434174 42.692299,109.286484 24.134924,114.378525 
	C18.324617,115.972832 12.776345,118.194183 7.291290,120.633774 
	C5.520211,121.421501 3.763505,122.741211 1.338426,121.200897 
	C1.000000,118.629440 1.000000,116.258888 1.000000,113.444168 
	C3.430897,105.419304 5.226125,97.669983 8.587909,90.348244 
	C15.533333,75.221565 23.945215,61.043663 35.899952,49.430012 
	C50.576218,35.172493 68.457039,27.227251 88.784042,24.555346 
	C108.706497,21.936619 128.590149,22.860035 148.527527,24.227476 
	C173.773712,25.959030 199.071075,27.626902 224.366058,26.308561 
	C243.659470,25.303013 262.796783,22.533958 281.447540,17.061790 
	C291.394623,14.143291 293.796478,16.398829 291.984558,26.537199 
	C289.683075,39.414883 283.403320,50.678055 277.097870,61.825867 
	C261.019226,90.252220 242.806320,117.394485 226.321884,145.583862 
	C207.940491,177.017105 191.635544,209.400452 180.801208,244.298248 
	C175.254837,262.163300 171.634735,280.352783 170.249969,299.102478 
	C169.203751,313.268311 170.044022,327.094208 173.946106,340.613281 
	C179.963226,361.459961 192.571609,375.650879 215.056610,379.244019 
	C225.103760,380.849579 234.964249,379.717407 244.797821,377.807251 
	C248.882324,377.013855 252.922760,375.967438 256.895264,374.701782 
	C260.766235,373.468475 262.570496,370.891510 262.123901,366.762207 
	C257.217224,321.392151 266.408752,278.280060 283.470703,236.556717 
	C301.277527,193.011871 326.163452,154.059052 360.504883,121.600777 
	C382.960449,100.376587 408.156464,83.558258 438.796387,76.464867 
	C451.197052,73.594009 463.738159,72.646210 476.464508,74.732903 
	C501.217499,78.791573 516.709167,97.033363 517.544983,122.558624 
	C518.406372,148.862045 511.317261,173.326614 501.199341,197.103943 
	C482.112000,241.959625 455.141083,281.873383 423.911469,319.056946 
	C409.006622,336.803406 392.991699,353.508118 376.268097,369.542084 
	C372.456512,373.196533 372.676025,375.635498 377.332703,378.582092 
	C385.974701,384.050476 395.578857,386.777924 405.685547,387.399902 
	C426.175110,388.660858 445.835144,384.777985 464.675720,376.814484 
	C493.631348,364.575562 517.588989,345.532410 538.121948,322.011536 
	C578.375122,275.900696 604.060730,222.595215 615.826904,162.633972 
	C620.311584,139.779709 621.588623,116.722672 616.578918,93.673576 
	C612.898926,76.742531 605.728943,61.873272 591.623718,51.072594 
	C588.293396,48.522491 588.097961,45.596462 590.470093,42.419121 
	C603.600525,24.831242 619.598145,10.888828 640.656677,3.578416 
	C644.723755,2.166546 649.189331,2.486065 653.694946,1.248756 
z"/>
<path fill="#000000" opacity="1.000000" stroke="none" 
	d="
M653.531372,1.000000 
	C654.755188,2.808818 653.398071,2.753473 652.286560,2.987473 
	C626.634338,8.387637 607.671936,23.525955 592.354492,44.042530 
	C590.702820,46.254784 590.658508,47.305073 593.097290,49.119606 
	C605.509094,58.354301 612.625244,70.997086 617.179260,85.666046 
	C622.486389,102.760628 622.923279,120.237488 621.776123,137.643204 
	C620.191223,161.691650 614.451355,185.036530 606.621582,207.871124 
	C594.206299,244.078278 576.507568,277.502716 553.392517,307.921387 
	C534.199341,333.179016 511.346252,354.766876 483.647827,370.539948 
	C466.517822,380.294739 448.162445,387.059662 428.238953,389.099091 
	C414.175537,390.538635 400.335907,390.952698 386.799927,386.041992 
	C381.060425,383.959656 375.808472,381.012146 370.922791,377.386078 
	C368.261292,375.410736 367.100861,373.494812 370.521454,370.910767 
	C377.294586,365.794067 383.042664,359.542542 388.966980,353.507965 
	C412.530945,329.505524 434.208405,303.976044 453.488495,276.330933 
	C466.533508,257.626099 478.517365,238.327438 488.838806,218.074783 
	C500.279572,195.625839 509.691711,172.232712 513.719910,147.194550 
	C516.080139,132.523697 516.512634,117.610764 510.946472,103.320396 
	C505.408203,89.101555 494.427460,81.014702 479.920135,78.105286 
	C451.398895,72.385422 425.603546,80.515434 400.954498,94.422195 
	C380.901031,105.736198 363.766510,120.581459 348.308228,137.355621 
	C333.736084,153.168198 320.988098,170.472000 310.030029,189.008850 
	C295.751617,213.162506 283.931305,238.433228 275.858521,265.383331 
	C270.691101,282.634125 266.549103,300.064270 264.923431,318.063629 
	C264.047485,327.762024 262.718933,337.441010 263.078583,347.182678 
	C263.351318,354.570129 264.206024,361.946045 265.049683,369.298615 
	C265.521149,373.407440 264.176819,375.342712 260.039124,376.626312 
	C248.705750,380.142181 237.082764,383.040558 225.377701,382.765503 
	C197.773605,382.116913 179.784668,370.006439 171.093506,340.412994 
	C167.644806,328.670135 166.407745,316.447540 167.113815,304.262299 
	C168.579071,278.975128 173.925171,254.459991 182.646469,230.623718 
	C191.946274,205.206329 203.552124,180.945389 216.792435,157.353317 
	C234.082138,126.545937 253.536697,97.070442 271.537903,66.710968 
	C278.196533,55.481041 284.631989,44.003654 288.278076,31.294014 
	C289.223145,27.999691 289.994965,24.669182 290.051971,21.174593 
	C290.095795,18.489183 289.192200,17.349804 286.571106,18.227724 
	C274.137665,22.392233 261.264130,24.683620 248.378464,26.667135 
	C239.447540,28.041887 230.350815,28.574440 221.306747,28.915930 
	C211.488892,29.286640 201.638672,29.244734 191.816132,28.942345 
	C177.269302,28.494516 162.704910,28.027884 148.203873,26.869621 
	C136.831604,25.961271 125.412842,24.829254 114.079750,25.206516 
	C96.096710,25.805143 78.019669,26.958540 61.292934,34.929535 
	C43.052582,43.621834 29.880123,57.505337 19.650490,74.659775 
	C12.652356,86.395187 7.748131,99.000031 2.992943,111.703796 
	C2.736139,112.389862 2.531759,112.890648 1.380754,112.982910 
	C1.000000,77.187164 1.059507,41.374081 0.909140,5.561874 
	C0.893886,1.928994 1.538924,0.894483 5.433415,0.896584 
	C221.309799,1.013032 437.186249,1.000000 653.531372,1.000000 
z"/>
<path fill="#000000" opacity="1.000000" stroke="none" 
	d="
M1.000000,121.468658 
	C14.339655,114.010216 28.285818,109.816910 43.531300,108.752098 
	C58.988949,107.672470 73.981262,109.751289 89.085342,111.921707 
	C110.047974,114.933990 131.109161,117.381477 152.284927,115.829681 
	C164.474548,114.936417 176.501587,112.225410 187.782333,107.061531 
	C190.069901,106.014389 190.092850,106.064537 193.747620,106.305710 
	C191.167618,111.460007 187.142944,115.417191 183.673874,119.691177 
	C165.907288,141.580154 149.785553,164.597717 134.746246,188.436935 
	C123.979187,205.504074 114.145569,223.058167 105.422920,241.218552 
	C93.020409,267.040314 83.096848,293.825500 77.210861,321.891724 
	C73.478317,339.689667 71.826813,357.863770 73.104851,376.058746 
	C74.534370,396.410553 79.655800,415.840363 92.227272,432.374298 
	C104.582504,448.623840 121.206177,458.592041 141.142319,462.991516 
	C141.950394,463.169861 142.821747,463.091095 142.977615,464.603088 
	C97.207954,465.000000 51.415527,464.919250 5.624465,465.131805 
	C1.308960,465.151825 0.901666,463.930145 0.905584,460.132324 
	C1.021877,347.400757 1.000000,234.669022 1.000000,121.468658 
z"/>
<path fill="#000000" opacity="1.000000" stroke="none" 
	d="
M406.468658,465.000000 
	C405.174133,463.079590 406.717010,463.203522 407.767151,463.029785 
	C427.064362,459.837128 445.273285,453.311584 463.126251,445.481110 
	C489.089752,434.093292 512.540588,418.614502 534.871582,401.439514 
	C554.995056,385.962341 573.417847,368.451172 590.533447,349.749451 
	C610.811218,327.592438 629.389404,304.010223 645.787659,278.763092 
	C671.315430,239.460052 691.941650,197.823944 705.470581,152.879684 
	C709.746277,138.675400 713.461853,124.252449 715.045044,109.409760 
	C715.122498,108.683060 715.394653,108.169693 716.587891,108.027664 
	C717.000000,225.589584 716.978455,343.179199 717.100708,460.768677 
	C717.104492,464.416901 716.297546,465.098206 712.736694,465.094116 
	C610.803650,464.977448 508.870483,465.000000 406.468658,465.000000 
z"/>
<path fill="#000000" opacity="1.000000" stroke="none" 
	d="
M206.468658,465.000000 
	C205.209213,463.597626 206.280640,463.263031 207.226181,463.084961 
	C235.578262,457.745026 261.813721,446.850525 286.775146,432.671631 
	C289.679871,431.021637 290.774414,433.186432 292.069519,434.635864 
	C299.773651,443.258026 308.583740,450.460297 319.024384,455.468384 
	C326.074005,458.849823 333.474762,461.369690 341.148590,462.991882 
	C341.957855,463.162964 342.823059,463.094818 342.977600,464.603088 
	C297.645782,465.000000 252.291550,465.000000 206.468658,465.000000 
z"/>
<path fill="#000000" opacity="1.000000" stroke="none" 
	d="
M717.000000,40.531342 
	C714.896301,41.637466 715.287537,40.041737 714.972656,38.873940 
	C711.537842,26.135138 705.294128,15.270561 694.147705,7.643349 
	C689.835510,4.692618 684.432434,4.482348 680.021118,1.392891 
	C691.434265,1.000000 702.870056,1.099232 714.301575,0.920999 
	C716.753967,0.882763 717.085388,1.527220 717.061401,3.771996 
	C716.931702,15.867721 717.000000,27.965569 717.000000,40.531342 
z"/>
<path fill="#000000" opacity="1.000000" stroke="none" 
	d="
M456.327606,163.309845 
	C454.658081,171.954498 451.333771,179.645676 447.853271,187.150772 
	C438.549835,207.211899 427.655487,226.400192 414.981018,244.569153 
	C403.713348,260.721466 391.785980,276.305359 378.673553,291.040833 
	C371.705383,298.871521 364.056671,305.973724 356.899811,313.581665 
	C355.683350,314.874786 354.528961,316.389252 352.182587,316.352753 
	C351.321442,307.814972 353.002502,299.527679 354.220703,291.354492 
	C356.430145,276.531006 360.114532,261.966248 364.987000,247.757050 
	C374.972717,218.636612 388.761719,191.450806 407.630127,167.082672 
	C415.591461,156.800797 424.663544,147.379181 436.399475,141.070297 
	C439.154694,139.589172 442.060791,138.508392 445.082825,138.065262 
	C454.353088,136.705978 458.859833,142.583099 458.123230,149.775955 
	C457.672333,154.179062 457.958893,158.653992 456.327606,163.309845 
z"/>
</svg>